<svg xmlns="http://www.w3.org/2000/svg" viewBox="0 0 24 24" width="120" height="120">
  <path d="M1.5 16 L3.5 11.2 Q4.3 9.3 6.6 9.3 L14.8 9.3 Q16.6 9.3 18 10.8 L20.8 13 Q22.5 13.4 22.5 15.2 L22.5 16.6 Q22.5 17.4 21.7 17.4 L2.3 17.4 Q1.5 17.4 1.5 16.6 Z" fill="#C62828" stroke="#8E1B1B" stroke-width="0.5"/>
  <path d="M6.5 10.6 L9.2 10.6 L9.2 12.9 L4.7 12.9 Z" fill="#CFE0EC" stroke="#8E1B1B" stroke-width="0.4"/>
  <path d="M10.1 10.6 L14.6 10.6 Q16 10.6 17 12.9 L10.1 12.9 Z" fill="#CFE0EC" stroke="#8E1B1B" stroke-width="0.4"/>
  <circle cx="7" cy="17.4" r="2.4" fill="#2B2B2B"/>
  <circle cx="7" cy="17.4" r="1" fill="#B7B7B7"/>
  <circle cx="17" cy="17.4" r="2.4" fill="#2B2B2B"/>
  <circle cx="17" cy="17.4" r="1" fill="#B7B7B7"/>
  <circle cx="20.6" cy="14.4" r="0.7" fill="#FFE08A"/>
</svg>
