<svg xmlns="http://www.w3.org/2000/svg" width="1200" height="300" viewBox="0 0 1200 300" role="img" aria-label="gimp-wedding-invite-template">
  <defs>
    <linearGradient id="bg" x1="0" y1="0" x2="1" y2="1">
      <stop offset="0" stop-color="#0d1117"/>
      <stop offset="1" stop-color="#593e87"/>
    </linearGradient>
    <linearGradient id="accentbar" x1="0" y1="0" x2="0" y2="1">
      <stop offset="0" stop-color="#a371f7"/>
      <stop offset="1" stop-color="#593e87"/>
    </linearGradient>
  </defs>
  <rect width="1200" height="300" fill="url(#bg)"/>
  <rect width="1200" height="300" fill="#0d1117" fill-opacity="0.55"/>
  <rect x="0" y="0" width="14" height="300" fill="url(#accentbar)"/>
  <circle cx="1080" cy="80" r="180" fill="#a371f7" fill-opacity="0.06"/>
  <circle cx="1140" cy="240" r="120" fill="#a371f7" fill-opacity="0.05"/>
  <text x="60" y="96" font-family="Segoe UI,Helvetica,Arial,sans-serif" font-size="56" font-weight="700" fill="#f0f6fc">gimp-wedding-invite-template</text>
  <text x="60" y="152" font-family="Segoe UI,Helvetica,Arial,sans-serif" font-size="24" fill="#8b949e">YAML-driven GIMP 3.2 + Python generator for print-ready wedding</text><text x="60" y="186" font-family="Segoe UI,Helvetica,Arial,sans-serif" font-size="24" fill="#8b949e">stationery</text>
  <g><rect x="60" y="232" rx="13" ry="13" width="94" height="30" fill="#161b22" stroke="#a371f7" stroke-opacity="0.45"/><text x="107" y="252" text-anchor="middle" font-family="SFMono-Regular,Consolas,Liberation Mono,Menlo,monospace" font-size="14" fill="#c9d1d9">GIMP 3.2</text></g><g><rect x="166" y="232" rx="13" ry="13" width="121" height="30" fill="#161b22" stroke="#a371f7" stroke-opacity="0.45"/><text x="226" y="252" text-anchor="middle" font-family="SFMono-Regular,Consolas,Liberation Mono,Menlo,monospace" font-size="14" fill="#c9d1d9">Python 3.13</text></g><g><rect x="299" y="232" rx="13" ry="13" width="58" height="30" fill="#161b22" stroke="#a371f7" stroke-opacity="0.45"/><text x="328" y="252" text-anchor="middle" font-family="SFMono-Regular,Consolas,Liberation Mono,Menlo,monospace" font-size="14" fill="#c9d1d9">YAML</text></g><g><rect x="369" y="232" rx="13" ry="13" width="85" height="30" fill="#161b22" stroke="#a371f7" stroke-opacity="0.45"/><text x="412" y="252" text-anchor="middle" font-family="SFMono-Regular,Consolas,Liberation Mono,Menlo,monospace" font-size="14" fill="#c9d1d9">Windows</text></g>
</svg>